<svg width="1024" height="1024" viewBox="0 0 1024 1024" fill="none"
    xmlns="http://www.w3.org/2000/svg">
    <g>
        <rect width="1024" height="1024" rx="224" fill="#ccfbf1"></rect>
        <path
            d="M525.648 347.768C356.492 310.402 234 394.907 234 520.388C234 657.936 405.112 728.347 495 745.833C516.487 858.13 559.082 1118.18 525.648 1271.33C492.213 1424.49 556.481 1743.52 593.117 1882.34C728.299 1890.13 1020.74 1906.33 1105.17 1906.33C1211.95 1906.33 1331.18 1788.53 1373.81 1793.75C1407.82 1797.93 1574.4 1757.91 1653.33 1737.47C1561.09 1723.7 1374.96 1656.87 1373.81 1500.42C1369.89 1304.97 978.905 1080.47 919.532 1052.73C860.168 1024.98 817.548 754.172 804.713 637.675C791.877 521.177 696.803 385.704 525.648 347.768Z"
            fill="#a7f3d0" stroke="#064e3b" stroke-width="27.5"></path>
        <path d="M495 745.833C535.833 754.917 572.5 745.833 590.833 736.75" stroke="#059669"
            stroke-opacity="0.5" stroke-width="27.5" stroke-linecap="round"></path>
        <path
            d="M524.071 389.939C552.318 393.143 580.269 390.224 602.074 377.758C625.071 364.904 640.336 342.642 643.919 311.332C647.504 280.091 637.79 254.93 618.442 237.226C599.847 220.102 573.517 211.074 545.271 207.871C516.399 204.61 488.314 208.814 466.736 221.821C444.736 235.079 429.295 257.131 426.005 286.727C422.716 316.323 432.676 340.794 451.465 358.761C470.13 376.555 495.199 386.678 524.071 389.939Z"
            fill="#FFB26B" stroke="#E17D21" stroke-width="27.5"></path>
        <path
            d="M525.279 173.207L577.539 179.226C589.17 189.671 607.127 209.852 588.084 207.685C564.589 205.143 571.707 236.179 560.041 218.401C548.374 200.624 529.762 223.227 520.138 213.887C512.273 206.415 500.541 199.727 495.555 197.317L525.279 173.207Z"
            fill="#53B356"></path>
        <path d="M467.5 531.667L394.167 504.167" stroke="black" stroke-width="27.5"
            stroke-linecap="round"></path>
        <path d="M302.5 463.125L256.667 440" stroke="black" stroke-width="27.5"
            stroke-linecap="round"></path>
    </g>
</svg>